# xmcd CD database file
#
# Track frame offsets:
#	150
#	12727
#	30935
#	42007
#	54696
#	64442
#	77669
#	89101
#	102764
#	119480
#	135613
#	148900
#	161765
#	175043
#	188679
#	210549
#	226539
#	235294
#	245243
#	255856
#	265935
#	287088
#
# Disc length: 4026 seconds
#
# Revision: 0
# Processed by: cddbd v1.4PL0 Copyright (c) Steve Scherf et al.
# Submitted via: CDex 1.50
#
DISCID=390fb816
DTITLE=Various/Big Bill Broonzy - Blues Song festival/Big Bill Broonzy
DYEAR=1900
DGENRE=Blues
TTITLE0=Face In The Crowd/Brownie McGhee
TTITLE1=Hush, Somebody Is Calling Me/Big Bill Broonzy
TTITLE2=Beautiful City/Sonny Terry
TTITLE3=Fan It/Lightnin' Hopkins
TTITLE4=Let It Be Me/Arbee Stridham
TTITLE5=Keep Your Hand Off Her/Leadbelly
TTITLE6=Stewball/Leadbelly Houston Guthrie
TTITLE7=Dirty Mistreater/Sonny Terry
TTITLE8=Big Wide World/Brownie McGhee
TTITLE9=Come back Baby/Jack Dupree
TTITLE10=I Wonder Why/Arbee Stridham
TTITLE11=Backwater Blues
TTITLE12=This Train
TTITLE13=I Don't Want No Woman
TTITLE14=Martha
TTITLE15=Tell Me Who
TTITLE16=Bill Bailey
TTITLE17=Alberta
TTITLE18=Goin' Down This Road
TTITLE19=Tell Me What Kind Of Man Jesus Is
TTITLE20=John Henry
TTITLE21=Glory Of Love
EXTD=
EXTT0=
EXTT1=
EXTT2=
EXTT3=
EXTT4=
EXTT5=
EXTT6=
EXTT7=
EXTT8=
EXTT9=
EXTT10=
EXTT11=
EXTT12=
EXTT13=
EXTT14=
EXTT15=
EXTT16=
EXTT17=
EXTT18=
EXTT19=
EXTT20=
EXTT21=
PLAYORDER=
